<svg width="20" height="20" viewBox="0 0 20 20" fill="none" xmlns="http://www.w3.org/2000/svg">
<path d="M6.24449 16.493C7.81991 17.4048 9.67315 17.7125 11.4587 17.3588C13.2442 17.0051 14.8402 16.0141 15.9491 14.5706C17.0579 13.1271 17.604 11.3296 17.4854 9.51323C17.3668 7.69685 16.5918 5.98559 15.3046 4.69848C14.0175 3.41137 12.3063 2.63628 10.4899 2.51771C8.67352 2.39914 6.87601 2.94518 5.43249 4.05404C3.98898 5.1629 2.998 6.75888 2.6443 8.54443C2.2906 10.33 2.59833 12.1832 3.51012 13.7586L2.53277 16.6766C2.49605 16.7867 2.49072 16.9049 2.51738 17.0179C2.54404 17.1309 2.60165 17.2342 2.68373 17.3163C2.76581 17.3984 2.86914 17.456 2.98212 17.4826C3.0951 17.5093 3.21327 17.504 3.3234 17.4672L6.24449 16.493Z" stroke="#53596C" stroke-linecap="round" stroke-linejoin="round"/>
</svg>
