<svg width="143" height="32" viewBox="0 0 143 32" fill="none" xmlns="http://www.w3.org/2000/svg"><path d="M6.07 13.072c.694 1.204 2.38 1.797 3.552 1.12 1.225-.708 1.426-2.366 1.922-3.195.497-.83 1.383-1.154 2.193-1.266s2.46.664 3.728-.067c1.192-.688 1.56-2.331.866-3.535s-2.38-1.797-3.553-1.12c-1.225.708-1.426 2.366-1.922 3.195-.497.83-1.13 1.358-2.152 1.396-1.022.039-2.502-.794-3.77-.063-1.19.688-1.56 2.331-.865 3.535" fill="#013BDB"/><path d="M6.07 13.072c.694 1.204 2.38 1.797 3.552 1.12 1.225-.708 1.426-2.366 1.922-3.195.497-.83 1.383-1.154 2.193-1.266s2.46.664 3.728-.067c1.192-.688 1.56-2.331.866-3.535s-2.38-1.797-3.553-1.12c-1.225.708-1.426 2.366-1.922 3.195-.497.83-1.13 1.358-2.152 1.396-1.022.039-2.502-.794-3.77-.063-1.19.688-1.56 2.331-.865 3.535" fill="url(#a)" fill-opacity=".44" style="mix-blend-mode:plus-lighter"/><path d="M18.331 24.771c-.695 1.204-2.38 1.797-3.553 1.12-1.225-.707-1.425-2.365-1.922-3.195s-1.383-1.153-2.193-1.266-2.46.665-3.728-.067c-1.191-.688-1.56-2.33-.865-3.534s2.38-1.797 3.552-1.12c1.226.707 1.426 2.366 1.923 3.195s1.13 1.358 2.151 1.396c1.023.038 2.502-.795 3.77-.063 1.191.688 1.56 2.33.865 3.534" fill="#013BDB"/><path d="M18.331 24.771c-.695 1.204-2.38 1.797-3.553 1.12-1.225-.707-1.425-2.365-1.922-3.195s-1.383-1.153-2.193-1.266-2.46.665-3.728-.067c-1.191-.688-1.56-2.33-.865-3.534s2.38-1.797 3.552-1.12c1.226.707 1.426 2.366 1.923 3.195s1.13 1.358 2.151 1.396c1.023.038 2.502-.795 3.77-.063 1.191.688 1.56 2.33.865 3.534" fill="url(#b)" fill-opacity=".44" style="mix-blend-mode:plus-lighter"/><path d="M22.533 22.942c1.39 0 2.746-1.162 2.746-2.516 0-1.415-1.336-2.418-1.806-3.263s-.307-1.774 0-2.531c.308-.758 1.806-1.8 1.806-3.263 0-1.376-1.238-2.517-2.628-2.517s-2.746 1.163-2.746 2.517c0 1.415 1.336 2.418 1.805 3.263.47.844.612 1.656.134 2.561-.478.904-1.94 1.77-1.94 3.233 0 1.375 1.239 2.516 2.629 2.516" fill="#013BDB"/><path d="M22.533 22.942c1.39 0 2.746-1.162 2.746-2.516 0-1.415-1.336-2.418-1.806-3.263s-.307-1.774 0-2.531c.308-.758 1.806-1.8 1.806-3.263 0-1.376-1.238-2.517-2.628-2.517s-2.746 1.163-2.746 2.517c0 1.415 1.336 2.418 1.805 3.263.47.844.612 1.656.134 2.561-.478.904-1.94 1.77-1.94 3.233 0 1.375 1.239 2.516 2.629 2.516" fill="url(#c)" fill-opacity=".44" style="mix-blend-mode:plus-lighter"/><path d="M131.512 23.003q-1.547 0-2.722-.765a4.06 4.06 0 0 1-1.621-2.05l1.621-.765a3.47 3.47 0 0 0 1.119 1.361 2.76 2.76 0 0 0 1.603.504q.746 0 1.212-.336t.466-.913q0-.373-.205-.597a1.5 1.5 0 0 0-.522-.391 2.8 2.8 0 0 0-.615-.224l-1.585-.448q-1.305-.372-1.957-1.118a2.7 2.7 0 0 1-.634-1.771q0-.913.466-1.585.466-.69 1.286-1.062t1.846-.373q1.38 0 2.461.69a3.64 3.64 0 0 1 1.528 1.883l-1.622.764a2.5 2.5 0 0 0-.95-1.156 2.5 2.5 0 0 0-1.436-.429q-.69 0-1.1.336a1.01 1.01 0 0 0-.41.839q0 .354.187.596.186.225.484.373.298.13.616.224l1.64.485q1.25.354 1.92 1.118.67.746.671 1.79 0 .894-.485 1.584-.465.672-1.304 1.063-.84.372-1.958.373" fill="#013BDB"/><path d="M131.512 23.003q-1.547 0-2.722-.765a4.06 4.06 0 0 1-1.621-2.05l1.621-.765a3.47 3.47 0 0 0 1.119 1.361 2.76 2.76 0 0 0 1.603.504q.746 0 1.212-.336t.466-.913q0-.373-.205-.597a1.5 1.5 0 0 0-.522-.391 2.8 2.8 0 0 0-.615-.224l-1.585-.448q-1.305-.372-1.957-1.118a2.7 2.7 0 0 1-.634-1.771q0-.913.466-1.585.466-.69 1.286-1.062t1.846-.373q1.38 0 2.461.69a3.64 3.64 0 0 1 1.528 1.883l-1.622.764a2.5 2.5 0 0 0-.95-1.156 2.5 2.5 0 0 0-1.436-.429q-.69 0-1.1.336a1.01 1.01 0 0 0-.41.839q0 .354.187.596.186.225.484.373.298.13.616.224l1.64.485q1.25.354 1.92 1.118.67.746.671 1.79 0 .894-.485 1.584-.465.672-1.304 1.063-.84.372-1.958.373" fill="url(#d)" fill-opacity=".44" style="mix-blend-mode:plus-lighter"/><path d="M121.802 23.002a4.7 4.7 0 0 1-2.144-.485 3.5 3.5 0 0 1-1.473-1.398l.242-.391v2.05h-2.013V8.667h2.107v6.114l-.336-.485q.56-.857 1.491-1.342.933-.484 2.126-.484 1.435 0 2.572.69a4.87 4.87 0 0 1 1.808 1.882q.671 1.193.671 2.685t-.671 2.684a5.06 5.06 0 0 1-1.789 1.901q-1.137.69-2.591.69m-.205-1.957q.894 0 1.584-.429t1.081-1.174q.41-.765.41-1.715t-.41-1.697a3 3 0 0 0-1.081-1.174q-.69-.43-1.584-.43a3 3 0 0 0-1.585.43q-.69.429-1.1 1.174-.391.746-.391 1.697 0 .95.391 1.715.41.745 1.1 1.174a3 3 0 0 0 1.585.429" fill="#013BDB"/><path d="M121.802 23.002a4.7 4.7 0 0 1-2.144-.485 3.5 3.5 0 0 1-1.473-1.398l.242-.391v2.05h-2.013V8.667h2.107v6.114l-.336-.485q.56-.857 1.491-1.342.933-.484 2.126-.484 1.435 0 2.572.69a4.87 4.87 0 0 1 1.808 1.882q.671 1.193.671 2.685t-.671 2.684a5.06 5.06 0 0 1-1.789 1.901q-1.137.69-2.591.69m-.205-1.957q.894 0 1.584-.429t1.081-1.174q.41-.765.41-1.715t-.41-1.697a3 3 0 0 0-1.081-1.174q-.69-.43-1.584-.43a3 3 0 0 0-1.585.43q-.69.429-1.1 1.174-.391.746-.391 1.697 0 .95.391 1.715.41.745 1.1 1.174a3 3 0 0 0 1.585.429" fill="url(#e)" fill-opacity=".44" style="mix-blend-mode:plus-lighter"/><path d="M109.775 23.003q-1.025 0-1.808-.355a3 3 0 0 1-1.193-1.006q-.429-.653-.429-1.529 0-.82.354-1.473.373-.651 1.137-1.1.765-.447 1.921-.633l3.504-.578v1.659l-3.094.54q-.84.15-1.231.541-.391.373-.391.97 0 .578.429.95.447.354 1.137.354.857 0 1.491-.372a2.65 2.65 0 0 0 1.007-.988q.354-.634.354-1.399v-2.59q0-.747-.559-1.212-.541-.485-1.454-.485-.84 0-1.473.447-.615.429-.914 1.119l-1.752-.876q.28-.745.914-1.305a4.5 4.5 0 0 1 1.472-.895 5.2 5.2 0 0 1 1.809-.317q1.193 0 2.106.447.932.448 1.435 1.25.522.782.522 1.826v6.786h-2.013v-1.827l.429.056q-.354.615-.914 1.063-.54.447-1.249.69a4.6 4.6 0 0 1-1.547.242" fill="#013BDB"/><path d="M109.775 23.003q-1.025 0-1.808-.355a3 3 0 0 1-1.193-1.006q-.429-.653-.429-1.529 0-.82.354-1.473.373-.651 1.137-1.1.765-.447 1.921-.633l3.504-.578v1.659l-3.094.54q-.84.15-1.231.541-.391.373-.391.97 0 .578.429.95.447.354 1.137.354.857 0 1.491-.372a2.65 2.65 0 0 0 1.007-.988q.354-.634.354-1.399v-2.59q0-.747-.559-1.212-.541-.485-1.454-.485-.84 0-1.473.447-.615.429-.914 1.119l-1.752-.876q.28-.745.914-1.305a4.5 4.5 0 0 1 1.472-.895 5.2 5.2 0 0 1 1.809-.317q1.193 0 2.106.447.932.448 1.435 1.25.522.782.522 1.826v6.786h-2.013v-1.827l.429.056q-.354.615-.914 1.063-.54.447-1.249.69a4.6 4.6 0 0 1-1.547.242" fill="url(#f)" fill-opacity=".44" style="mix-blend-mode:plus-lighter"/><path d="M96.91 22.779V8.89h2.2v11.93h6.003v1.958z" fill="#013BDB"/><path d="M96.91 22.779V8.89h2.2v11.93h6.003v1.958z" fill="url(#g)" fill-opacity=".44" style="mix-blend-mode:plus-lighter"/><path d="M87.252 23.003q-1.455 0-2.666-.69a5.2 5.2 0 0 1-1.901-1.883q-.708-1.193-.708-2.703 0-1.53.708-2.703a5.07 5.07 0 0 1 1.901-1.864q1.194-.69 2.666-.69 1.491 0 2.666.69a4.93 4.93 0 0 1 1.883 1.864q.708 1.174.708 2.703t-.708 2.722a5.2 5.2 0 0 1-1.902 1.882q-1.192.672-2.647.672m0-1.958q.895 0 1.585-.429a3 3 0 0 0 1.081-1.174q.41-.765.41-1.715t-.41-1.696a3 3 0 0 0-1.081-1.175q-.69-.429-1.585-.429a3 3 0 0 0-1.584.43q-.69.428-1.1 1.174-.392.745-.392 1.696t.392 1.715q.41.746 1.1 1.174a3 3 0 0 0 1.584.43" fill="#013BDB"/><path d="M87.252 23.003q-1.455 0-2.666-.69a5.2 5.2 0 0 1-1.901-1.883q-.708-1.193-.708-2.703 0-1.53.708-2.703a5.07 5.07 0 0 1 1.901-1.864q1.194-.69 2.666-.69 1.491 0 2.666.69a4.93 4.93 0 0 1 1.883 1.864q.708 1.174.708 2.703t-.708 2.722a5.2 5.2 0 0 1-1.902 1.882q-1.192.672-2.647.672m0-1.958q.895 0 1.585-.429a3 3 0 0 0 1.081-1.174q.41-.765.41-1.715t-.41-1.696a3 3 0 0 0-1.081-1.175q-.69-.429-1.585-.429a3 3 0 0 0-1.584.43q-.69.428-1.1 1.174-.392.745-.392 1.696t.392 1.715q.41.746 1.1 1.174a3 3 0 0 0 1.584.43" fill="url(#h)" fill-opacity=".44" style="mix-blend-mode:plus-lighter"/><path d="M78.936 22.779V12.694h2.107v10.085zm0-11.465V8.891h2.107v2.423z" fill="#013BDB"/><path d="M78.936 22.779V12.694h2.107v10.085zm0-11.465V8.891h2.107v2.423z" fill="url(#i)" fill-opacity=".44" style="mix-blend-mode:plus-lighter"/><path d="M69.132 22.778V8.667h2.106v6.002l-.335-.26q.372-.952 1.193-1.436.82-.503 1.901-.503 1.118 0 1.976.484.859.484 1.342 1.342.485.858.485 1.958v6.524h-2.088v-5.946q0-.765-.298-1.287a1.9 1.9 0 0 0-.783-.82 2.2 2.2 0 0 0-1.156-.298q-.633 0-1.156.298-.503.28-.801.82-.28.54-.28 1.287v5.946z" fill="#013BDB"/><path d="M69.132 22.778V8.667h2.106v6.002l-.335-.26q.372-.952 1.193-1.436.82-.503 1.901-.503 1.118 0 1.976.484.859.484 1.342 1.342.485.858.485 1.958v6.524h-2.088v-5.946q0-.765-.298-1.287a1.9 1.9 0 0 0-.783-.82 2.2 2.2 0 0 0-1.156-.298q-.633 0-1.156.298-.503.28-.801.82-.28.54-.28 1.287v5.946z" fill="url(#j)" fill-opacity=".44" style="mix-blend-mode:plus-lighter"/><path d="M67.057 22.89q-1.585 0-2.46-.894-.877-.895-.877-2.517v-4.884h-1.77v-1.901h.279q.708 0 1.1-.41.39-.411.391-1.119v-.783h2.107v2.312h2.293v1.901h-2.293v4.791q0 .522.168.895.167.354.54.56.373.185.97.186.148 0 .335-.02l.354-.036v1.808q-.26.038-.578.074a5 5 0 0 1-.559.038" fill="#013BDB"/><path d="M67.057 22.89q-1.585 0-2.46-.894-.877-.895-.877-2.517v-4.884h-1.77v-1.901h.279q.708 0 1.1-.41.39-.411.391-1.119v-.783h2.107v2.312h2.293v1.901h-2.293v4.791q0 .522.168.895.167.354.54.56.373.185.97.186.148 0 .335-.02l.354-.036v1.808q-.26.038-.578.074a5 5 0 0 1-.559.038" fill="url(#k)" fill-opacity=".44" style="mix-blend-mode:plus-lighter"/><path d="M52.89 22.779V12.694h2.014v1.976l-.242-.261q.372-.951 1.193-1.436.82-.503 1.901-.503 1.118 0 1.976.485.858.484 1.342 1.342.486.858.485 1.976v6.506h-2.088v-5.947q0-.764-.28-1.286a1.9 1.9 0 0 0-.801-.82 2.2 2.2 0 0 0-1.156-.299q-.652 0-1.174.299-.504.28-.783.82-.28.541-.28 1.286v5.947z" fill="#013BDB"/><path d="M52.89 22.779V12.694h2.014v1.976l-.242-.261q.372-.951 1.193-1.436.82-.503 1.901-.503 1.118 0 1.976.485.858.484 1.342 1.342.486.858.485 1.976v6.506h-2.088v-5.947q0-.764-.28-1.286a1.9 1.9 0 0 0-.801-.82 2.2 2.2 0 0 0-1.156-.299q-.652 0-1.174.299-.504.28-.783.82-.28.541-.28 1.286v5.947z" fill="url(#l)" fill-opacity=".44" style="mix-blend-mode:plus-lighter"/><path d="M44.29 26.88q-.372 0-.745-.075a2.7 2.7 0 0 1-.653-.186V24.81q.225.055.541.093.316.056.615.056.876 0 1.286-.392.429-.373.765-1.156l.67-1.528-.036 1.77-4.362-10.96h2.255l3.225 8.407h-.764l3.206-8.408h2.275l-4.456 11.185a6 6 0 0 1-.895 1.566q-.522.69-1.249 1.063-.708.372-1.677.373" fill="#013BDB"/><path d="M44.29 26.88q-.372 0-.745-.075a2.7 2.7 0 0 1-.653-.186V24.81q.225.055.541.093.316.056.615.056.876 0 1.286-.392.429-.373.765-1.156l.67-1.528-.036 1.77-4.362-10.96h2.255l3.225 8.407h-.764l3.206-8.408h2.275l-4.456 11.185a6 6 0 0 1-.895 1.566q-.522.69-1.249 1.063-.708.372-1.677.373" fill="url(#m)" fill-opacity=".44" style="mix-blend-mode:plus-lighter"/><path d="M37.515 23.002q-1.305 0-2.423-.485a5.7 5.7 0 0 1-1.902-1.36 5.5 5.5 0 0 1-1.155-1.976l1.864-.783q.503 1.286 1.472 1.976.97.69 2.237.69.747 0 1.305-.224.56-.243.858-.671.317-.43.317-.988 0-.765-.429-1.212-.428-.448-1.268-.709l-2.61-.82q-1.565-.485-2.386-1.472-.82-1.006-.82-2.35 0-1.174.578-2.05a3.94 3.94 0 0 1 1.585-1.398q1.025-.503 2.33-.503 1.249 0 2.274.447a5.1 5.1 0 0 1 1.752 1.193q.746.765 1.082 1.771l-1.827.802q-.41-1.1-1.286-1.697-.858-.596-1.995-.596-.69 0-1.212.242-.522.224-.82.671-.28.43-.28 1.007 0 .67.429 1.193.428.522 1.305.783l2.423.764q1.66.504 2.498 1.454.84.933.84 2.33 0 1.156-.616 2.051-.596.895-1.66 1.417-1.062.503-2.46.503" fill="#013BDB"/><path d="M37.515 23.002q-1.305 0-2.423-.485a5.7 5.7 0 0 1-1.902-1.36 5.5 5.5 0 0 1-1.155-1.976l1.864-.783q.503 1.286 1.472 1.976.97.69 2.237.69.747 0 1.305-.224.56-.243.858-.671.317-.43.317-.988 0-.765-.429-1.212-.428-.448-1.268-.709l-2.61-.82q-1.565-.485-2.386-1.472-.82-1.006-.82-2.35 0-1.174.578-2.05a3.94 3.94 0 0 1 1.585-1.398q1.025-.503 2.33-.503 1.249 0 2.274.447a5.1 5.1 0 0 1 1.752 1.193q.746.765 1.082 1.771l-1.827.802q-.41-1.1-1.286-1.697-.858-.596-1.995-.596-.69 0-1.212.242-.522.224-.82.671-.28.43-.28 1.007 0 .67.429 1.193.428.522 1.305.783l2.423.764q1.66.504 2.498 1.454.84.933.84 2.33 0 1.156-.616 2.051-.596.895-1.66 1.417-1.062.503-2.46.503" fill="url(#n)" fill-opacity=".44" style="mix-blend-mode:plus-lighter"/><defs><linearGradient id="a" x1="15.5" y1="26.176" x2="15.5" y2="4.725" gradientUnits="userSpaceOnUse"><stop stop-color="#000C2F" stop-opacity="0"/><stop offset="1" stop-color="#000C2F"/></linearGradient><linearGradient id="b" x1="15.5" y1="26.176" x2="15.5" y2="4.725" gradientUnits="userSpaceOnUse"><stop stop-color="#000C2F" stop-opacity="0"/><stop offset="1" stop-color="#000C2F"/></linearGradient><linearGradient id="c" x1="15.5" y1="26.176" x2="15.5" y2="4.725" gradientUnits="userSpaceOnUse"><stop stop-color="#000C2F" stop-opacity="0"/><stop offset="1" stop-color="#000C2F"/></linearGradient><linearGradient id="d" x1="83.881" y1="22.779" x2="83.881" y2="8.779" gradientUnits="userSpaceOnUse"><stop stop-color="#000C2F" stop-opacity="0"/><stop offset="1" stop-color="#000C2F"/></linearGradient><linearGradient id="e" x1="83.881" y1="22.778" x2="83.881" y2="8.778" gradientUnits="userSpaceOnUse"><stop stop-color="#000C2F" stop-opacity="0"/><stop offset="1" stop-color="#000C2F"/></linearGradient><linearGradient id="f" x1="83.881" y1="22.779" x2="83.881" y2="8.779" gradientUnits="userSpaceOnUse"><stop stop-color="#000C2F" stop-opacity="0"/><stop offset="1" stop-color="#000C2F"/></linearGradient><linearGradient id="g" x1="83.881" y1="22.779" x2="83.881" y2="8.779" gradientUnits="userSpaceOnUse"><stop stop-color="#000C2F" stop-opacity="0"/><stop offset="1" stop-color="#000C2F"/></linearGradient><linearGradient id="h" x1="83.881" y1="22.779" x2="83.881" y2="8.779" gradientUnits="userSpaceOnUse"><stop stop-color="#000C2F" stop-opacity="0"/><stop offset="1" stop-color="#000C2F"/></linearGradient><linearGradient id="i" x1="83.881" y1="22.779" x2="83.881" y2="8.779" gradientUnits="userSpaceOnUse"><stop stop-color="#000C2F" stop-opacity="0"/><stop offset="1" stop-color="#000C2F"/></linearGradient><linearGradient id="j" x1="83.881" y1="22.778" x2="83.881" y2="8.778" gradientUnits="userSpaceOnUse"><stop stop-color="#000C2F" stop-opacity="0"/><stop offset="1" stop-color="#000C2F"/></linearGradient><linearGradient id="k" x1="83.881" y1="22.779" x2="83.881" y2="8.779" gradientUnits="userSpaceOnUse"><stop stop-color="#000C2F" stop-opacity="0"/><stop offset="1" stop-color="#000C2F"/></linearGradient><linearGradient id="l" x1="83.881" y1="22.779" x2="83.881" y2="8.779" gradientUnits="userSpaceOnUse"><stop stop-color="#000C2F" stop-opacity="0"/><stop offset="1" stop-color="#000C2F"/></linearGradient><linearGradient id="m" x1="83.881" y1="22.779" x2="83.881" y2="8.779" gradientUnits="userSpaceOnUse"><stop stop-color="#000C2F" stop-opacity="0"/><stop offset="1" stop-color="#000C2F"/></linearGradient><linearGradient id="n" x1="83.881" y1="22.778" x2="83.881" y2="8.778" gradientUnits="userSpaceOnUse"><stop stop-color="#000C2F" stop-opacity="0"/><stop offset="1" stop-color="#000C2F"/></linearGradient></defs></svg>