<svg width="38" height="38" viewBox="0 0 38 38" fill="none" xmlns="http://www.w3.org/2000/svg">
<path d="M33.1339 12.5886V33.117C33.1339 35.0285 31.5843 36.5781 29.6728 36.5781H8.32832C6.41677 36.5781 4.86719 35.0285 4.86719 33.117V4.88301C4.86711 2.97146 6.4167 1.42188 8.32832 1.42188H22.6243L33.1339 12.5886Z" fill="#E5252A"/>
<path d="M33.1346 12.5886H24.9324C23.6581 12.5886 22.625 11.5555 22.625 10.2812V1.42188L33.1346 12.5886Z" fill="#ED676A"/>
<path d="M12.2427 26.1104V28.4494H10.582V21.5586H13.3311C13.8584 21.5586 14.3249 21.6555 14.7305 21.8493C15.1361 22.0431 15.4493 22.3202 15.6724 22.6785C15.8932 23.0368 16.0058 23.4425 16.0058 23.8976C16.0058 24.5691 15.7647 25.1054 15.2825 25.5088C14.8025 25.9098 14.1423 26.1104 13.3018 26.1104H12.2427ZM12.2427 24.8282H13.3311C13.6534 24.8282 13.8989 24.7493 14.0679 24.5871C14.2369 24.4271 14.3203 24.1995 14.3203 23.9066C14.3203 23.5843 14.2324 23.3275 14.0589 23.1337C13.8854 22.9421 13.6488 22.8452 13.3491 22.8407H12.2427V24.8282Z" fill="white"/>
<path d="M16.8906 28.4494V21.5586H19.1102C19.7186 21.5586 20.2661 21.6961 20.7528 21.9732C21.2373 22.2481 21.6181 22.638 21.8908 23.1427C22.1635 23.6453 22.3009 24.2086 22.3032 24.8327V25.1505C22.3032 25.7814 22.1702 26.347 21.9043 26.8473C21.6384 27.3475 21.2621 27.7374 20.7776 28.0213C20.2931 28.303 19.7523 28.4449 19.1574 28.4494H16.8906V28.4494ZM18.5514 22.8408V27.1717H19.1282C19.6059 27.1717 19.971 27.0028 20.2256 26.6625C20.4825 26.3245 20.611 25.8198 20.611 25.1505V24.853C20.611 24.186 20.4825 23.6858 20.2256 23.3478C19.971 23.0097 19.5992 22.8408 19.1102 22.8408H18.5514Z" fill="white"/>
<path d="M27.4962 25.7048H24.8169V28.4494H23.1562V21.5586H27.7644V22.8408H24.8169V24.4271H27.4962V25.7048Z" fill="white"/>
</svg>
