<svg width="48" height="48" viewBox="0 0 48 48" fill="none" xmlns="http://www.w3.org/2000/svg">
<rect width="48" height="48" fill="#F7F9FF"/>
<path d="M19.875 27C22.5674 27 24.75 24.8174 24.75 22.125C24.75 19.4326 22.5674 17.25 19.875 17.25C17.1826 17.25 15 19.4326 15 22.125C15 24.8174 17.1826 27 19.875 27Z" stroke="#013BDB" stroke-width="2" stroke-linecap="round" stroke-linejoin="round"/>
<path d="M12.959 30.75C13.7081 29.5982 14.7331 28.6517 15.9409 27.9965C17.1486 27.3412 18.5009 26.998 19.8749 26.998C21.249 26.998 22.6012 27.3412 23.809 27.9965C25.0167 28.6517 26.0417 29.5982 26.7909 30.75" stroke="#013BDB" stroke-width="1.83333" stroke-linecap="round" stroke-linejoin="round"/>
<path d="M28.125 27C29.499 26.9992 30.8513 27.3418 32.0592 27.9967C33.267 28.6517 34.292 29.5981 35.0409 30.75" stroke="#013BDB" stroke-width="1.83333" stroke-linecap="round" stroke-linejoin="round"/>
<path d="M26.3145 17.5969C26.9813 17.3309 27.6987 17.2155 28.4153 17.2589C29.1319 17.3023 29.8301 17.5035 30.46 17.8481C31.0899 18.1926 31.6359 18.672 32.059 19.252C32.4821 19.8321 32.7718 20.4984 32.9076 21.2034C33.0433 21.9084 33.0216 22.6346 32.8441 23.3303C32.6666 24.026 32.3376 24.6738 31.8807 25.2276C31.4238 25.7814 30.8502 26.2274 30.2009 26.5338C29.5516 26.8402 28.8427 26.9994 28.1248 27" stroke="#013BDB" stroke-width="1.83333" stroke-linecap="round" stroke-linejoin="round"/>
</svg>
