<svg width="268" height="154" viewBox="0 0 268 154" fill="none" xmlns="http://www.w3.org/2000/svg">
<g clip-path="url(#clip0_2042_1634)">
<rect width="267.333" height="154" fill="#EBF0FF"/>
<path d="M182.413 120.125C182.083 120.695 181.61 121.169 181.04 121.498C180.469 121.827 179.823 122 179.164 122H89.1641C88.5062 121.999 87.86 121.826 87.2905 121.496C86.7209 121.167 86.2481 120.693 85.9194 120.123C85.5907 119.553 85.4178 118.907 85.418 118.249C85.4181 117.591 85.5914 116.945 85.9204 116.375C93.0594 104.033 104.061 95.1828 116.9 90.9875C110.549 87.2068 105.615 81.446 102.855 74.5897C100.096 67.7333 99.6626 60.1606 101.623 53.0345C103.584 45.9083 107.829 39.6228 113.708 35.1431C119.587 30.6634 126.773 28.2372 134.164 28.2372C141.555 28.2372 148.742 30.6634 154.62 35.1431C160.499 39.6228 164.744 45.9083 166.705 53.0345C168.666 60.1606 168.233 67.7333 165.473 74.5897C162.713 81.446 157.779 87.2068 151.428 90.9875C164.267 95.1828 175.269 104.033 182.408 116.375C182.738 116.945 182.912 117.591 182.913 118.249C182.913 118.908 182.741 119.555 182.413 120.125Z" fill="#93A1B8"/>
</g>
<defs>
<clipPath id="clip0_2042_1634">
<rect width="267.333" height="154" fill="white"/>
</clipPath>
</defs>
</svg>
